PathFileType	4	(X/Y/Z)	E:\Qualisys_Data\Carbon_Farble_Plate\Data\Amateur_Runner\S2\T3\S2T3V11_c3d.trc
DataRate	CameraRate	NumFrames	NumMarkers	Units	OrigDataRate	OrigDataStartFrame	OrigNumFrames
200.000000	200.000000	5	39	mm	200.000000	0	324
Frame#	Time	LSHO			RSHO			LICST			RICST			LASIS			LHEEL			RASIS			LTROC			RTROC			SACR			LTH1			LSK4			LTH2			LTH3			RHM5			LSK2			LTH4			RTH1			LTOE			RTH2			RTH3			RTH4			LLEP			RLEP			LSK1			LSK3			RSK1			LHM5			RSK2			LFT1			RSK3			RSK4			LLME			RLME			RTOE			RHEEL			RFT1			RFT2			LFT2			
		X1	Y1	Z1	X2	Y2	Z2	X3	Y3	Z3	X4	Y4	Z4	X5	Y5	Z5	X6	Y6	Z6	X7	Y7	Z7	X8	Y8	Z8	X9	Y9	Z9	X10	Y10	Z10	X11	Y11	Z11	X12	Y12	Z12	X13	Y13	Z13	X14	Y14	Z14	X15	Y15	Z15	X16	Y16	Z16	X17	Y17	Z17	X18	Y18	Z18	X19	Y19	Z19	X20	Y20	Z20	X21	Y21	Z21	X22	Y22	Z22	X23	Y23	Z23	X24	Y24	Z24	X25	Y25	Z25	X26	Y26	Z26	X27	Y27	Z27	X28	Y28	Z28	X29	Y29	Z29	X30	Y30	Z30	X31	Y31	Z31	X32	Y32	Z32	X33	Y33	Z33	X34	Y34	Z34	X35	Y35	Z35	X36	Y36	Z36	X37	Y37	Z37	X38	Y38	Z38	X39	Y39	Z39	

1	0	-2493.202880859375	1521.75927734375	-477.9534912109375	-2539.836669921875	1503.081665039062	-173.8074951171875	-2568.836181640625	1060.619995117188	-473.55419921875	-2562.69140625	1056.1328125	-177.2570648193359	-2519.2021484375	1006.546875	-461.6022644042969	-3019.0009765625	327.921142578125	-382.4035949707031	-2504.156005859375	1008.809265136719	-206.1824645996094	-2668.27978515625	955.4998168945312	-471.2583312988281	-2632.5439453125	952.6817626953125	-161.0831451416016	-2662.23974609375	1102.249389648438	-329.3435974121094	-2632.60888671875	703.1736450195312	-480.5661926269531	-2919.472900390625	434.6410522460938	-453.89697265625	-2710.0625	731.9138793945312	-476.0792236328125	-2667.380126953125	607.6135864257812	-462.0293884277344	-2283.02685546875	148.5945434570312	-165.6678009033203	-2855.8525390625	510.51220703125	-465.7854309082031	-2745.1708984375	639.3827514648438	-453.06884765625	-2432.36669921875	721.1947021484375	-167.4608306884766	-2970.57470703125	82.42415618896484	-381.6766662597656	-2505.328857421875	697.8102416992188	-167.1349792480469	-2402.8134765625	626.5648803710938	-188.0235137939453	-2479.403564453125	605.6904907226562	-180.8137359619141	-2731.165283203125	581.6258544921875	-458.4986572265625	-2442.95703125	575.554443359375	-180.4993133544922	-2796.55859375	460.2854309082031	-467.2644653320312	-2860.724609375	383.3746337890625	-461.8116149902344	-2401.516357421875	453.6526489257812	-169.4816589355469	-3017.928466796875	129.7169952392578	-434.2388000488281	-2482.9599609375	448.3754577636719	-166.6443176269531	-3034.267822265625	317.185302734375	-347.4833679199219	-2394.385986328125	352.6695251464844	-178.0689392089844	-2474.263671875	350.1114196777344	-178.1720275878906	-3001.6669921875	271.1051330566406	-434.137939453125	-2410.985595703125	159.9065093994141	-204.4150238037109	-2221.937255859375	187.1485443115234	-214.0235290527344	-2465.108642578125	125.3352355957031	-268.7283020019531	-2437.3291015625	106.835334777832	-295.8056640625	-2454.775634765625	98.91005706787109	-247.189697265625	-3053.380859375	315.0856018066406	-395.5493469238281
2	0.005	-2477.881103515625	1522.356567382812	-477.3992614746094	-2524.90673828125	1503.182495117188	-173.1690368652344	-2552.65673828125	1061.0283203125	-473.9413757324219	-2546.011962890625	1055.654418945312	-177.6583709716797	-2502.923828125	1006.577941894531	-461.4927062988281	-3007.900634765625	333.5975952148438	-381.48046875	-2487.722900390625	1008.621948242188	-206.8005676269531	-2652.55859375	956.6685791015624	-472.7114562988281	-2616.550537109375	951.440185546875	-161.8645629882812	-2646.672119140625	1102.4033203125	-329.5601196289062	-2615.2353515625	703.3123168945312	-480.3166198730469	-2905.87158203125	438.1009216308594	-454.4562683105469	-2693.901611328125	731.8987426757812	-476.7186889648438	-2650.25732421875	607.856201171875	-462.4090270996094	-2257.450927734375	151.9462890625	-164.9583435058594	-2841.268310546875	512.7510986328125	-466.7006530761719	-2727.939697265625	639.192626953125	-452.7738037109375	-2418.002685546875	718.374755859375	-167.1857604980469	-2962.384765625	88.1438980102539	-384.6144714355469	-2492.85986328125	695.2235717773438	-166.3709411621094	-2389.599853515625	623.5606079101562	-187.7869262695312	-2466.32470703125	602.9979858398438	-181.3086853027344	-2715.214599609375	581.94580078125	-459.6367492675781	-2428.758544921875	574.053466796875	-180.2620849609375	-2782.07177734375	460.7798767089844	-468.0406188964844	-2847.997314453125	385.5050048828125	-462.0308227539062	-2385.064208984375	453.6177062988281	-169.8752899169922	-3010.134033203125	136.4186401367188	-435.3628540039062	-2466.394287109375	445.9942321777344	-166.3403167724609	-3022.4296875	322.3677368164062	-346.0732727050781	-2375.058349609375	352.6929321289062	-177.9916839599609	-2455.13916015625	347.9753723144531	-178.1988830566406	-2991.84423828125	277.0791625976562	-434.1655578613281	-2387.162109375	159.7530517578125	-204.8470916748047	-2198.05078125	192.3567657470703	-213.0529174804688	-2438.294677734375	122.5307464599609	-268.6227722167969	-2410.6884765625	105.9860076904297	-295.9601440429688	-2428.93310546875	97.04935455322266	-248.8383483886719	-3042.85693359375	321.1678466796875	-395.0470275878906
3	0.01	-2462.388427734375	1522.514892578125	-476.5642700195312	-2509.928955078125	1503.02001953125	-172.7756500244141	-2536.392333984375	1061.570922851562	-474.1054992675781	-2529.546630859375	1054.5849609375	-177.8188323974609	-2487.138427734375	1007.048950195312	-461.7215881347656	-2997.037841796875	338.9228515625	-380.29638671875	-2471.27001953125	1008.54248046875	-206.8741607666016	-2636.033447265625	956.448486328125	-473.3404846191406	-2600.7763671875	950.229736328125	-162.4751281738281	-2630.532958984375	1101.993896484375	-329.3059997558594	-2597.397216796875	702.4554443359375	-480.2214050292969	-2892.380615234375	442.0703735351562	-455.0486145019531	-2676.520263671875	731.3003540039062	-477.2525939941406	-2632.364501953125	607.1146240234375	-462.5922241210938	-2234.32861328125	154.7789306640625	-164.7950439453125	-2825.412109375	514.5584106445312	-467.375732421875	-2710.60107421875	638.8366088867188	-453.4609680175781	-2404.1728515625	715.720703125	-166.9978790283203	-2955.71826171875	92.90975952148438	-386.4288635253906	-2478.142822265625	692.8136596679688	-164.4473266601562	-2376.568603515625	619.8234252929688	-187.4574279785156	-2453.47509765625	600.0858764648438	-180.3732452392578	-2697.17578125	580.8298950195312	-460.8685302734375	-2414.792724609375	571.1646728515625	-180.189697265625	-2768.228271484375	461.6825256347656	-469.0801696777344	-2836.0712890625	387.9316711425781	-462.7445678710938	-2368.958984375	453.2664489746094	-170.2389831542969	-3001.8974609375	142.6163635253906	-436.763671875	-2448.91357421875	443.12939453125	-166.2148284912109	-3011.30078125	328.021484375	-345.6366882324219	-2355.4423828125	352.6229248046875	-178.6849517822266	-2435.424072265625	346.0711975097656	-178.1788024902344	-2981.517822265625	282.5453491210938	-433.6709289550781	-2363.045654296875	159.0685424804688	-205.2532348632812	-2175.394287109375	196.9310150146484	-213.0282135009766	-2413.662841796875	120.9432983398438	-269.3280639648438	-2385.518798828125	104.8448867797852	-296.1223449707031	-2403.7548828125	94.63906860351562	-248.7280883789062	-3032.453125	327.4415893554688	-394.5714416503906
4	0.015	-2446.108154296875	1522.39892578125	-475.6202087402344	-2494.36767578125	1501.859985351562	-172.0967254638672	-2520.430908203125	1061.62353515625	-473.9698181152344	-2514.46728515625	1053.437133789062	-177.9925689697266	-2470.834228515625	1006.91455078125	-461.7611389160156	-2986.537841796875	344.8550109863281	-380.3553466796875	-2455.633544921875	1007.072937011719	-206.7514038085938	-2620.262939453125	956.6395874023438	-474.5335083007812	-2585.7158203125	948.3338623046876	-162.6141662597656	-2614.847900390625	1101.042602539062	-328.9346923828125	-2579.674072265625	701.6727905273438	-480.8129272460938	-2878.1396484375	445.4346618652344	-455.4592895507812	-2658.175048828125	729.5643310546875	-477.6850280761719	-2613.787353515625	606.107177734375	-462.160400390625	-2212.806640625	158.0791015625	-165.5737609863281	-2809.819580078125	516.7504272460938	-468.4564514160156	-2692.0234375	637.300537109375	-453.9953918457031	-2390.364013671875	712.4231567382812	-166.0409088134766	-2946.016845703125	98.14236450195312	-387.8103637695312	-2464.675048828125	690.140869140625	-163.6025695800781	-2362.86279296875	616.9747314453125	-187.2036437988281	-2440.49267578125	597.2742919921875	-180.1151580810547	-2681.5322265625	581.1424560546875	-461.2130737304688	-2400.759521484375	569.5096435546875	-180.0570678710938	-2753.806640625	461.9249877929688	-469.4312744140625	-2823.12255859375	389.863037109375	-462.8173217773438	-2352.076416015625	452.8699951171875	-170.8155212402344	-2991.74072265625	148.1808319091797	-436.7789916992188	-2432.173095703125	441.3802490234375	-165.9889831542969	-3000.570068359375	333.1688842773438	-344.7625732421875	-2337.341796875	352.79736328125	-180.0528106689453	-2416.610595703125	344.1101684570312	-177.6136016845703	-2970.8623046875	287.8158874511719	-433.0740966796875	-2340.255126953125	159.0352478027344	-205.6871948242188	-2154.258544921875	200.8701324462891	-213.5375518798828	-2390.91015625	120.6528472900391	-270.2346496582031	-2361.6875	104.0769882202148	-297.0896911621094	-2380.158935546875	94.06060028076172	-249.5943908691406	-3021.515625	333.044921875	-393.8186340332031
5	0.02	-2430.6982421875	1521.867431640625	-474.5866088867188	-2478.893798828125	1500.89306640625	-171.2163543701172	-2504.731201171875	1061.32666015625	-474.6869506835938	-2498.09228515625	1052.18359375	-177.8199310302734	-2455.45263671875	1006.309204101562	-462.2096252441406	-2975.0732421875	349.9559936523438	-379.1844787597656	-2440.1318359375	1005.865112304688	-207.1802520751953	-2604.041748046875	955.8472900390624	-475.6842956542969	-2570.095947265625	946.622802734375	-163.0351257324219	-2599.446044921875	1100.593505859375	-329.1760864257812	-2560.904052734375	700.2857055664062	-479.9945678710938	-2863.505126953125	448.4572143554688	-455.5904846191406	-2639.859130859375	727.8995971679688	-478.6771850585938	-2593.7744140625	604.1776123046875	-462.2706604003906	-2191.82470703125	160.0224304199219	-166.2747497558594	-2793.3896484375	518.0308837890625	-469.5853576660156	-2673.853759765625	635.4765625	-455.0592041015625	-2375.487548828125	709.1477661132812	-164.9422302246094	-2935.692626953125	102.8076705932617	-388.08544921875	-2449.492431640625	687.7496948242188	-162.6000823974609	-2348.792724609375	613.3002319335938	-186.3712768554688	-2426.25048828125	594.7583618164062	-179.5895080566406	-2662.072998046875	578.6651611328125	-462.1972351074219	-2386.954833984375	567.2730712890625	-179.4562835693359	-2739.03466796875	462.2651672363281	-470.0712585449219	-2810.403076171875	392.0715637207031	-463.0759887695312	-2335.565185546875	452.4653015136719	-171.6516571044922	-2982.552001953125	154.5323486328125	-438.0132751464844	-2414.228271484375	439.2823181152344	-165.1494293212891	-2989.61279296875	338.3083801269531	-343.882568359375	-2318.66162109375	352.3844909667969	-180.1458129882812	-2397.932373046875	343.2522583007812	-177.6198425292969	-2960.275146484375	293.4695129394531	-432.9752807617188	-2319.064208984375	159.4669189453125	-205.7744293212891	-2134.47607421875	204.1732025146484	-214.1333618164062	-2368.971923828125	118.7155609130859	-270.6161193847656	-2339.766845703125	103.3104934692383	-297.2348022460938	-2357.94580078125	93.05277252197266	-250.1883544921875	-3009.68408203125	337.8291015625	-392.5320129394531
